<?xml version="1.0" encoding="utf-8"?>
<!-- Generator: Adobe Illustrator 16.0.0, SVG Export Plug-In . SVG Version: 6.00 Build 0)  -->
<!DOCTYPE svg PUBLIC "-//W3C//DTD SVG 1.1//EN" "http://www.w3.org/Graphics/SVG/1.1/DTD/svg11.dtd">
<svg version="1.1" id="Layer_1" xmlns="http://www.w3.org/2000/svg" xmlns:xlink="http://www.w3.org/1999/xlink" x="0px" y="0px"
	 width="243px" height="44px" viewBox="0 0 243 44" enable-background="new 0 0 243 44" xml:space="preserve">
<g>
	<path fill="#FFFFFF" d="M9.168,6.994c0.412,0,0.784,0.036,1.124,0.111c0.338,0.073,0.626,0.196,0.87,0.364
		c0.24,0.168,0.428,0.392,0.562,0.674c0.131,0.277,0.197,0.624,0.197,1.035c0,0.444-0.098,0.815-0.295,1.111
		c-0.198,0.297-0.49,0.54-0.878,0.729c0.529,0.156,0.922,0.432,1.182,0.822c0.262,0.393,0.39,0.864,0.39,1.416
		c0,0.448-0.083,0.833-0.251,1.157c-0.168,0.328-0.398,0.594-0.681,0.8c-0.285,0.207-0.612,0.358-0.979,0.457
		c-0.363,0.1-0.739,0.148-1.125,0.148H5.109V6.994H9.168z M8.923,10.56c0.336,0,0.614-0.082,0.834-0.248
		c0.218-0.162,0.324-0.432,0.324-0.803c0-0.205-0.035-0.374-0.105-0.506c-0.073-0.132-0.17-0.235-0.292-0.308
		C9.562,8.62,9.425,8.569,9.266,8.541C9.11,8.509,8.947,8.497,8.778,8.497H7.005v2.062L8.923,10.56L8.923,10.56z M9.028,14.316
		c0.187,0,0.364-0.017,0.531-0.056c0.17-0.037,0.32-0.098,0.447-0.188c0.127-0.085,0.232-0.203,0.308-0.352
		c0.077-0.148,0.114-0.34,0.114-0.572c0-0.455-0.125-0.777-0.374-0.974c-0.249-0.193-0.581-0.29-0.989-0.29h-2.06v2.431
		L9.028,14.316L9.028,14.316z"/>
	<path fill="#FFFFFF" d="M15.021,14.287c0.257,0.257,0.627,0.386,1.108,0.386c0.345,0,0.644-0.09,0.894-0.268
		c0.248-0.178,0.399-0.369,0.458-0.566h1.508c-0.243,0.77-0.61,1.318-1.112,1.648c-0.496,0.332-1.101,0.498-1.806,0.498
		c-0.491,0-0.933-0.082-1.33-0.242c-0.396-0.162-0.728-0.391-1.007-0.688c-0.272-0.298-0.483-0.65-0.633-1.064
		c-0.149-0.412-0.224-0.868-0.224-1.362c0-0.478,0.078-0.925,0.23-1.337c0.155-0.414,0.371-0.771,0.654-1.07
		c0.283-0.302,0.619-0.539,1.01-0.713c0.391-0.174,0.822-0.26,1.3-0.26c0.528,0,0.989,0.104,1.385,0.315
		c0.395,0.209,0.718,0.492,0.973,0.847c0.254,0.354,0.435,0.759,0.548,1.213c0.112,0.453,0.151,0.928,0.119,1.423h-4.499
		C14.598,13.552,14.765,14.03,15.021,14.287z M16.989,10.93c-0.203-0.231-0.547-0.356-0.968-0.356c-0.274,0-0.5,0.048-0.682,0.145
		c-0.178,0.094-0.322,0.213-0.434,0.352c-0.11,0.141-0.185,0.291-0.229,0.449c-0.044,0.156-0.07,0.297-0.078,0.422h2.786
		C17.343,11.493,17.194,11.162,16.989,10.93z"/>
	<path fill="#FFFFFF" d="M14.248,7.586v0.87h3.491v-0.87H14.248z"/>
</g>
<g>
	<path fill="#EE2B7B" d="M9.168,29.146c0.412,0,0.784,0.035,1.124,0.11c0.338,0.073,0.626,0.196,0.87,0.364
		c0.24,0.168,0.428,0.393,0.562,0.674c0.131,0.277,0.197,0.624,0.197,1.035c0,0.443-0.098,0.814-0.295,1.111
		c-0.198,0.297-0.49,0.539-0.878,0.729c0.529,0.156,0.922,0.432,1.182,0.822c0.262,0.393,0.39,0.863,0.39,1.416
		c0,0.447-0.083,0.833-0.251,1.156c-0.168,0.328-0.398,0.595-0.681,0.801c-0.285,0.207-0.612,0.357-0.979,0.457
		c-0.363,0.1-0.739,0.148-1.125,0.148H5.109v-8.826h4.059V29.146z M8.923,32.712c0.336,0,0.614-0.082,0.834-0.248
		c0.218-0.162,0.324-0.432,0.324-0.803c0-0.205-0.035-0.374-0.105-0.507c-0.073-0.131-0.17-0.234-0.292-0.307
		c-0.121-0.076-0.258-0.127-0.417-0.154c-0.156-0.032-0.319-0.045-0.488-0.045H7.005v2.062L8.923,32.712L8.923,32.712z
		 M9.028,36.469c0.187,0,0.364-0.017,0.531-0.056c0.17-0.037,0.32-0.099,0.447-0.188c0.127-0.084,0.232-0.203,0.308-0.352
		c0.077-0.148,0.114-0.34,0.114-0.572c0-0.455-0.125-0.777-0.374-0.974c-0.249-0.193-0.581-0.29-0.989-0.29h-2.06v2.431
		L9.028,36.469L9.028,36.469z"/>
	<path fill="#EE2B7B" d="M15.021,36.439c0.257,0.256,0.627,0.386,1.108,0.386c0.345,0,0.644-0.091,0.894-0.269
		c0.248-0.178,0.399-0.369,0.458-0.565h1.508c-0.243,0.77-0.61,1.317-1.112,1.647c-0.496,0.332-1.101,0.498-1.806,0.498
		c-0.491,0-0.933-0.082-1.33-0.242c-0.396-0.162-0.728-0.391-1.007-0.688c-0.272-0.298-0.483-0.65-0.633-1.064
		c-0.149-0.412-0.224-0.867-0.224-1.361c0-0.479,0.078-0.926,0.23-1.338c0.155-0.414,0.371-0.771,0.654-1.069
		c0.283-0.302,0.619-0.539,1.01-0.713c0.391-0.175,0.822-0.261,1.3-0.261c0.528,0,0.989,0.104,1.385,0.315
		c0.395,0.209,0.718,0.492,0.973,0.847c0.254,0.354,0.435,0.76,0.548,1.213c0.112,0.453,0.151,0.929,0.119,1.424h-4.499
		C14.598,35.704,14.765,36.184,15.021,36.439z M16.989,33.082c-0.203-0.23-0.547-0.355-0.968-0.355c-0.274,0-0.5,0.047-0.682,0.145
		c-0.178,0.094-0.322,0.213-0.434,0.352c-0.11,0.142-0.185,0.291-0.229,0.449c-0.044,0.156-0.07,0.297-0.078,0.422h2.786
		C17.343,33.646,17.194,33.314,16.989,33.082z"/>
	<path fill="#EE2B7B" d="M14.248,29.738v0.869h3.491v-0.869H14.248z"/>
</g>
<g>
	<path fill="#FFFFFF" d="M37.493,10.407h-1.132c0.083,0.32,0.131,0.654,0.131,1c0,2.209-1.791,4-4,4s-4-1.791-4-4
		c0-0.346,0.049-0.68,0.131-1h-1.132v5.5c0,0.275,0.224,0.5,0.501,0.5h9c0.276,0,0.5-0.225,0.5-0.5L37.493,10.407L37.493,10.407z
		 M37.493,6.907c0-0.276-0.224-0.5-0.5-0.5h-1.5c-0.276,0-0.5,0.224-0.5,0.5v1.5c0,0.275,0.224,0.5,0.5,0.5h1.5
		c0.276,0,0.5-0.225,0.5-0.5V6.907z M32.492,8.907c-1.381,0-2.5,1.119-2.5,2.5c0,1.381,1.12,2.5,2.5,2.5c1.38,0,2.5-1.119,2.5-2.5
		C34.992,10.026,33.873,8.907,32.492,8.907 M37.493,17.907H27.491c-0.828,0-1.5-0.672-1.5-1.5v-10c0-0.828,0.671-1.5,1.5-1.5h10.001
		c0.828,0,1.5,0.672,1.5,1.5v10C38.992,17.235,38.321,17.907,37.493,17.907"/>
</g>
<g>
	<path fill="#EE2B7B" d="M37.493,32.559h-1.132c0.083,0.32,0.131,0.654,0.131,1c0,2.209-1.791,4-4,4s-4-1.791-4-4
		c0-0.346,0.049-0.68,0.131-1h-1.132v5.5c0,0.275,0.224,0.5,0.501,0.5h9c0.276,0,0.5-0.225,0.5-0.5L37.493,32.559L37.493,32.559z
		 M37.493,29.059c0-0.276-0.224-0.5-0.5-0.5h-1.5c-0.276,0-0.5,0.224-0.5,0.5v1.5c0,0.275,0.224,0.5,0.5,0.5h1.5
		c0.276,0,0.5-0.225,0.5-0.5V29.059z M32.492,31.059c-1.381,0-2.5,1.119-2.5,2.5s1.12,2.5,2.5,2.5c1.38,0,2.5-1.119,2.5-2.5
		S33.873,31.059,32.492,31.059 M37.493,40.059H27.491c-0.828,0-1.5-0.672-1.5-1.5v-10c0-0.828,0.671-1.5,1.5-1.5h10.001
		c0.828,0,1.5,0.672,1.5,1.5v10C38.992,39.387,38.321,40.059,37.493,40.059"/>
</g>
<g>
	<path fill="#FFFFFF" d="M55.485,4.908c-3.589,0-6.499,2.909-6.499,6.498c0,2.661,1.6,4.947,3.89,5.953
		c-0.018-0.455-0.003-1,0.113-1.493c0.125-0.527,0.836-3.541,0.836-3.541s-0.208-0.415-0.208-1.028c0-0.963,0.558-1.682,1.253-1.682
		c0.591,0,0.876,0.443,0.876,0.975c0,0.595-0.379,1.483-0.574,2.307c-0.163,0.689,0.346,1.252,1.026,1.252
		c1.231,0,2.061-1.582,2.061-3.455c0-1.425-0.959-2.49-2.704-2.49c-1.972,0-3.2,1.47-3.2,3.111c0,0.566,0.167,0.966,0.429,1.275
		c0.12,0.142,0.137,0.199,0.093,0.361c-0.031,0.12-0.103,0.408-0.132,0.521c-0.043,0.165-0.177,0.225-0.325,0.163
		c-0.908-0.37-1.331-1.364-1.331-2.482c0-1.847,1.557-4.06,4.645-4.06c2.481,0,4.114,1.795,4.114,3.723
		c0,2.549-1.417,4.453-3.506,4.453c-0.702,0-1.362-0.379-1.588-0.81c0,0-0.377,1.497-0.457,1.786
		c-0.138,0.502-0.408,1.002-0.654,1.393c0.584,0.172,1.202,0.267,1.842,0.267c3.589,0,6.499-2.909,6.499-6.499
		C61.983,7.817,59.074,4.908,55.485,4.908z"/>
</g>
<g>
	<path fill="#EE2B7B" d="M55.485,27.061c-3.589,0-6.499,2.908-6.499,6.498c0,2.66,1.6,4.946,3.89,5.952
		c-0.018-0.454-0.003-1,0.113-1.493c0.125-0.526,0.836-3.541,0.836-3.541s-0.208-0.414-0.208-1.027c0-0.963,0.558-1.682,1.253-1.682
		c0.591,0,0.876,0.442,0.876,0.975c0,0.595-0.379,1.482-0.574,2.307C55.011,35.736,55.52,36.3,56.2,36.3
		c1.231,0,2.061-1.582,2.061-3.454c0-1.426-0.959-2.49-2.704-2.49c-1.972,0-3.2,1.47-3.2,3.11c0,0.566,0.167,0.966,0.429,1.275
		c0.12,0.142,0.137,0.198,0.093,0.36c-0.031,0.121-0.103,0.408-0.132,0.521c-0.043,0.165-0.177,0.225-0.325,0.163
		c-0.908-0.37-1.331-1.364-1.331-2.481c0-1.848,1.557-4.061,4.645-4.061c2.481,0,4.114,1.795,4.114,3.723
		c0,2.549-1.417,4.453-3.506,4.453c-0.702,0-1.362-0.379-1.588-0.811c0,0-0.377,1.498-0.457,1.787
		c-0.138,0.502-0.408,1.002-0.654,1.393c0.584,0.172,1.202,0.268,1.842,0.268c3.589,0,6.499-2.91,6.499-6.5
		C61.983,29.969,59.074,27.061,55.485,27.061z"/>
</g>
<g>
	<path fill="#FFFFFF" d="M83.972,7.328L83.972,7.328L83.972,7.328 M79.666,5.907c-1.586,0-2.872,1.357-2.872,3.029
		c0,0.238,0.025,0.469,0.074,0.69c-2.387-0.126-4.503-1.332-5.919-3.165c-0.247,0.447-0.389,0.968-0.389,1.523
		c0,1.051,0.507,1.978,1.278,2.521c-0.471-0.016-0.914-0.152-1.301-0.379c0,0.012,0,0.025,0,0.037c0,1.469,0.99,2.693,2.304,2.971
		c-0.241,0.069-0.495,0.106-0.757,0.106c-0.185,0-0.365-0.019-0.54-0.054c0.365,1.203,1.426,2.078,2.683,2.104
		c-0.983,0.812-2.221,1.297-3.566,1.297c-0.232,0-0.46-0.015-0.685-0.043c1.271,0.859,2.78,1.361,4.402,1.361
		c5.282,0,8.171-4.616,8.171-8.619c0-0.131-0.003-0.262-0.008-0.393c0.561-0.426,1.048-0.96,1.433-1.567
		c-0.515,0.241-1.068,0.403-1.649,0.478c0.593-0.375,1.048-0.969,1.263-1.677c-0.555,0.347-1.169,0.6-1.824,0.735
		C81.238,6.275,80.492,5.907,79.666,5.907"/>
</g>
<g>
	<path fill="#EE2B7B" d="M83.972,29.479L83.972,29.479L83.972,29.479 M79.666,28.057c-1.586,0-2.872,1.357-2.872,3.029
		c0,0.238,0.025,0.469,0.074,0.691c-2.387-0.127-4.503-1.332-5.919-3.166c-0.247,0.447-0.389,0.969-0.389,1.522
		c0,1.052,0.507,1.979,1.278,2.521c-0.471-0.016-0.914-0.151-1.301-0.379c0,0.013,0,0.025,0,0.037c0,1.47,0.99,2.693,2.304,2.972
		c-0.241,0.069-0.495,0.106-0.757,0.106c-0.185,0-0.365-0.02-0.54-0.055c0.365,1.203,1.426,2.078,2.683,2.104
		c-0.983,0.812-2.221,1.297-3.566,1.297c-0.232,0-0.46-0.014-0.685-0.043c1.271,0.859,2.78,1.361,4.402,1.361
		c5.282,0,8.171-4.615,8.171-8.619c0-0.131-0.003-0.262-0.008-0.393c0.561-0.426,1.048-0.959,1.433-1.566
		c-0.515,0.24-1.068,0.402-1.649,0.478c0.593-0.375,1.048-0.97,1.263-1.677c-0.555,0.347-1.169,0.601-1.824,0.734
		C81.238,28.426,80.492,28.057,79.666,28.057"/>
</g>
</svg>
